<?xml version="1.0" encoding="utf-8"?>
<!-- Generator: Adobe Illustrator 22.0.1, SVG Export Plug-In . SVG Version: 6.00 Build 0)  -->
<svg version="1.1" id="_x32_" xmlns="http://www.w3.org/2000/svg" xmlns:xlink="http://www.w3.org/1999/xlink" x="0px" y="0px"
	 width="512px" height="512px" viewBox="0 0 512 512" style="enable-background:new 0 0 512 512;" xml:space="preserve">
<style type="text/css">
	.st0{fill:#f65151;}
</style>
<g>
	<path class="st0" d="M64.3,225.7H9c-5,0-9,4-9,9v173.2c0,5,4,9,9,9h55.2c5,0,9-4,9-9V234.7C73.3,229.7,69.3,225.7,64.3,225.7z"/>
	<path class="st0" d="M469.7,195.4H369.3h-24.5H267c-5.9,0-11.4-2.9-14.8-7.7c-3.4-4.8-4.2-11-2.2-16.5l20.6-56.7
		c2-5.5,1.2-11.7-2.2-16.5c-3.4-4.8-8.9-7.7-14.8-7.7H251c-18,0-34.9,9-45,23.9l-95.5,129.1v132.3l85.3,32.7
		c5.2,1.6,11.6,3.2,16.6,4l75.8,9.6c23.3,0,44.1-14.9,51.5-37.1l37.8-114.6c1.2-3.7,4.7-6.2,8.6-6.2h91.7c27,0,34.2-15.3,34.2-34.2
		S488.6,195.4,469.7,195.4z"/>
</g>
</svg>
