<svg xmlns="http://www.w3.org/2000/svg" width="187.531" height="23.996" viewBox="0 0 187.531 23.996">
    <defs>
        <style>
            .cls-1{fill:#fff}
        </style>
    </defs>
    <g id="serviceLogo_rd01" transform="translate(147.426 18.864)">
        <g id="serviceLogo_rd01-2" data-name="serviceLogo_rd01" transform="translate(-147.426 -18.864)">
            <g id="rd" transform="translate(50.294 3.142)">
                <path id="パス_202" d="M281.267 70.571c-.581.9-1.932.844-2.513.844-.9 0-2.644-.188-2.982-1.725 0 0-.356 1.875-3.563 1.725-.488-.019-2.794-.113-3.638-1.482a2.919 2.919 0 0 1-.056-2.663c.769-1.294 1.594-1.369 5.4-2.663a2.058 2.058 0 0 0 1.688-2.044v-1.575a1.71 1.71 0 0 0-1.744-1.838c-1.238 0-1.575.788-1.575 1.313 0 .056.169 1.238.169 1.482s-.188 1.125-1.725 1.125-1.632-.863-1.632-1.425c0-2.25 2.288-3.244 4.839-3.244s5.1 1.031 5.1 4.163v6.658c0 1.05.544 1.2.919 1.2s.769-.506.769-.506zm-5.667-5.907c-.506.806-2.607 1.163-3.151 1.763a1.878 1.878 0 0 0-.638 1.688c0 .3-.019 2.25 1.838 2.232 1.407-.019 1.969-1.519 1.969-2.776z" class="cls-1" data-name="パス 202" transform="translate(-268.217 -50.58)"/>
                <g id="グループ_208" data-name="グループ 208" transform="translate(17.4 1.05)">
                    <path id="パス_203" d="M361.038 58.3h5.307v11.984h1.969v1.05H361v-1.05h1.913V59.369h-1.875z" class="cls-1" data-name="パス 203" transform="translate(-361 -51.549)"/>
                    <ellipse id="楕円形_89" cx="1.819" cy="1.819" class="cls-1" data-name="楕円形 89" rx="1.819" ry="1.819" transform="translate(1.875)"/>
                </g>
                <path id="パス_204" d="M422.2 58.5h5.195v2.513a4.107 4.107 0 0 1 3.676-2.494 2.382 2.382 0 0 1 2.644 2.382c0 1.2-.563 1.8-1.707 1.8-1.444 0-1.707-.75-1.707-1.257a4.079 4.079 0 0 1 .113-.9c.075-.3-.3-.544-.563-.544s-1.369.263-2.138 2.307a4.145 4.145 0 0 0-.263 1.5v6.658h2.213v1.05H422.2v-1.05h1.819V59.531H422.2z" class="cls-1" data-name="パス 204" transform="translate(-393.322 -50.661)"/>
                <path id="パス_205" d="M528.431 22.87h-.975c-.844-2.869-1.725-5.1-5.664-5.1-1.782 0-5.945.319-5.945 9.489s4.857 9.264 5.945 9.264a6.085 6.085 0 0 0 5.72-5.345h.919v6.376H527.4c0-.863-.187-.9-.413-.994s-.6.038-1.294.338a15.058 15.058 0 0 1-3.957.638 10.925 10.925 0 0 1-9.658-6.358 10.427 10.427 0 0 1 .075-8.214 10.773 10.773 0 0 1 9.564-6.264 12.224 12.224 0 0 1 4.763.938c.263.113.788.225.844-.413h1.069z" class="cls-1" data-name="パス 205" transform="translate(-465.684 -16.7)"/>
                <path id="パス_206" d="M625 22.3h5.364v18.754h1.936v1.031H625v-1.031h1.95V23.331H625z" class="cls-1" data-name="パス 206" transform="translate(-558.09 -21.25)"/>
                <path id="パス_207" d="M699.8 64.97a6.757 6.757 0 1 1-6.751-6.47 6.62 6.62 0 0 1 6.751 6.47zm-3.451 0c0-5.42-2.326-5.457-3.338-5.457s-3.282.019-3.282 5.457 2.307 5.345 3.282 5.345 3.32.075 3.32-5.345z" class="cls-1" data-name="パス 207" transform="translate(-607.894 -50.661)"/>
                <path id="パス_208" d="M780.738 66.8h.769c.206.675 1.069 3.694 4.388 3.694 1.331 0 2.625-.525 2.625-1.782s-.975-1.538-2.344-2.175c-2.1-.975-5.082-.919-5.082-3.938s2.851-4.22 4.763-4.126a7.241 7.241 0 0 1 3.319.956c.206.113.319.038.431-.113a2.234 2.234 0 0 0 .113-.844h.844V62.1h-.806a4.254 4.254 0 0 0-4.013-2.626c-3.038 0-2.588 2.1-2.194 2.532.788.844 4.257 1.763 4.257 1.763 2.194.731 3.263 1.744 3.263 3.469a4.2 4.2 0 0 1-3.188 4.013 8.533 8.533 0 0 1-4.632-.225 4.762 4.762 0 0 0-1.275-.431c-.244.019-.488.188-.488.844h-.788z" class="cls-1" data-name="パス 208" transform="translate(-684.59 -50.639)"/>
                <path id="パス_209" d="M946.957 41.7a5.726 5.726 0 0 0 3.413 0v3.132h3.469v1.05h-3.451v8.645c0 .844.131 1.969 1.482 1.969s1.988-1.782 1.988-1.782l1.05.281c-.112.6-.788 2.832-4.013 2.832-3.676 0-3.92-1.95-3.92-3.226v-8.719H944.5v-1.05h2.457z" class="cls-1" data-name="パス 209" transform="translate(-817.671 -37.012)"/>
                <path id="パス_210" d="M861.894 64.22c0 3.544.6 6.039 3.826 6.039 2.832 0 3.694-2.926 3.694-2.926l1.031.281a5.44 5.44 0 0 1-5.382 3.863 6.359 6.359 0 0 1-6.564-6.526 6.655 6.655 0 0 1 6.433-6.451c3 0 5.57 1.725 5.57 5.72zm5.1-1.069c0-2.157-.319-3.657-2.194-3.657s-2.907 1.613-2.907 3.657z" class="cls-1" data-name="パス 210" transform="translate(-747.8 -50.661)"/>
            </g>
            <g id="グループ_209" data-name="グループ 209">
                <path id="パス_211" d="M89.806 6.8V8h1.144V6.257a.581.581 0 0 0-.581-.563 2.288 2.288 0 1 1 2.288-2.288.581.581 0 0 0 1.144 0A3.451 3.451 0 1 0 89.787 6.8z" class="cls-1" data-name="パス 211" transform="translate(-70.609 .054)"/>
                <path id="パス_212" d="M37.914 59.722c-1.106-.731-9.4-3.638-11.852-6.208S23 48.583 19.817 48.489s-3.713 2.363-6.245 5.026-10.746 5.476-11.853 6.207a3.643 3.643 0 0 0-1.669 3c-.113.938.638.581.638.581l15.191-8.139a9.49 9.49 0 0 1 3.938-.938 9.489 9.489 0 0 1 3.938.938L38.946 63.3s.731.356.619-.581a3.626 3.626 0 0 0-1.651-2.997z" class="cls-1" data-name="パス 212" transform="translate(-.039 -39.383)"/>
                <path id="パス_213" d="M17.757 121.7l-2.157 1.144h33.663l-2.138-1.144z" class="cls-1" data-name="パス 213" transform="translate(-12.682 -98.866)"/>
            </g>
        </g>
    </g>
</svg>
