<svg xmlns="http://www.w3.org/2000/svg" width="160" height="160" viewBox="0 0 160 160">
    <g fill="none" fill-rule="evenodd">
        <path d="M0 0h160v160H0z"/>
        <path fill="#76A340" d="M160 80c0 44.183-35.817 80-80 80S0 124.183 0 80 35.817 0 80 0s80 35.817 80 80"/>
        <g fill="#FFF">
            <path fill-rule="nonzero" d="M94.66 66.217h15.869c8.492 0 15.471 6.707 15.471 15.102v34.29h-12V81.32c0-1.658-1.502-3.102-3.471-3.102H82.661v-26.84c0-1.658-1.502-3.101-3.471-3.101H49.47c-1.968 0-3.47 1.443-3.47 3.102v64.231H34V51.378c0-8.395 6.979-15.102 15.47-15.102h29.72c8.492 0 15.47 6.707 15.47 15.102v14.84z"/>
            <path d="M56.667 78.552h16.551V62H56.667zM56.667 115.218h16.551V98.667H56.667zM88.333 115.218h16.552V98.667H88.333z"/>
        </g>
    </g>
</svg>
