<svg xmlns="http://www.w3.org/2000/svg" width="178" height="100" viewBox="0 0 178 100">
    <g fill="none" fill-rule="evenodd">
        <path stroke="#76A340" stroke-width="10" d="M122.374 5h12.06c5.087 0 9.212 4.126 9.212 9.214v72.114a9.213 9.213 0 0 1-9.213 9.214H44.214A9.214 9.214 0 0 1 35 86.328V14.214A9.214 9.214 0 0 1 44.214 5h12.057M72.918 5h32.811"/>
        <path fill="#76A340" d="M56.794 43.854h16.124V27.73H56.794zM81.261 43.854h16.124V27.73H81.261zM105.729 43.854h16.124V27.73h-16.124zM56.794 72.812h16.124V56.687H56.794zM81.261 72.812h16.124V56.687H81.261zM105.729 72.812h16.124V56.687h-16.124z"/>
    </g>
</svg>
