<svg xmlns="http://www.w3.org/2000/svg" width="178" height="100" viewBox="0 0 178 100">
    <g fill="none" fill-rule="evenodd" stroke="#76A340" stroke-width="10">
        <path d="M53.865 75.09c0 5.936-4.812 10.748-10.749 10.748S32.367 81.026 32.367 75.09 37.18 64.34 43.117 64.34c5.936 0 10.748 4.812 10.748 10.75zM123.81 75.09c0 5.936 4.812 10.748 10.749 10.748s10.75-4.812 10.75-10.749-4.813-10.749-10.75-10.749-10.75 4.812-10.75 10.75zM68.813 75.079h40.05M150.313 46.888h-25.514V25.584M124.799 46.888H28.086M162.676 69.931v9.845M15 79.776V31.148C15 21.677 22.678 14 32.148 14h76.958"/>
        <path d="M162.676 69.931V31.148c0-9.47-7.678-17.148-17.148-17.148h-36.421"/>
    </g>
</svg>
