<svg xmlns="http://www.w3.org/2000/svg" xmlns:xlink="http://www.w3.org/1999/xlink" width="160" height="160" viewBox="0 0 160 160">
    <defs>
        <path id="a" d="M160 80c0 44.183-35.817 80-80 80S0 124.183 0 80 35.817 0 80 0s80 35.817 80 80"/>
    </defs>
    <g fill="none" fill-rule="evenodd">
        <path fill="#76A340" d="M160 80c0 44.183-35.817 80-80 80S0 124.183 0 80 35.817 0 80 0s80 35.817 80 80"/>
        <path d="M0 0h160v160H0z"/>
        <g>
            <mask id="b" fill="#fff">
                <use xlink:href="#a"/>
            </mask>
            <use fill="#76A340" xlink:href="#a"/>
            <g stroke="#FFF" stroke-width="8" mask="url(#b)">
                <path d="M-50 112.461v-7.996c0-10.23 8.293-18.524 18.524-18.524h6.312v-6.013c0-7.692 6.236-13.928 13.928-13.928h42.42c7.692 0 13.928 6.236 13.928 13.928v6.013h6.312c10.23 0 18.524 8.293 18.524 18.524v7.996"/>
                <path d="M-18.432 108.655a8.731 8.731 0 1 1-17.462 0 8.731 8.731 0 0 1 17.462 0zM38.38 108.655a8.731 8.731 0 1 0 17.462 0 8.731 8.731 0 0 0-17.462 0zM-6.291 108.646h32.53M121.62 75.297a8.73 8.73 0 0 1-8.73 8.73 8.73 8.73 0 1 1 0-17.461 8.73 8.73 0 0 1 8.73 8.73zM178.432 75.297a8.73 8.73 0 1 0 8.73-8.73 8.73 8.73 0 0 0-8.73 8.73zM143.54 26h-19.31l-11.164 26.583h-4.49c-10.23 0-18.524 8.293-18.524 18.523"/>
                <path d="M131.108 67.492h32.801c0-8.234 10.707-14.91 17.374-14.91h10.193c10.23 0 18.524 8.294 18.524 18.524M131.108 42.988h10.023c4.406 0 12.78 2.537 12.78 9.595v3.869"/>
            </g>
        </g>
    </g>
</svg>
