<?xml version="1.0" encoding="utf-8"?>
<!-- Generator: Adobe Illustrator 21.1.0, SVG Export Plug-In . SVG Version: 6.00 Build 0)  -->
<svg version="1.1" id="レイヤー_1" xmlns="http://www.w3.org/2000/svg" xmlns:xlink="http://www.w3.org/1999/xlink" x="0px"
	 y="0px" viewBox="0 0 48 48" style="enable-background:new 0 0 48 48;" xml:space="preserve">
<style type="text/css">
	.st0{fill:#2BAC38;}
</style>
<title>icon_LINE@</title>
<path class="st0" d="M24,0C10.7,0,0,10.8,0,24s10.7,24,24,24c2.5,0,5-0.4,7.4-1.2l1.4-0.5c0.5-0.2,0.8-0.7,0.6-1.2c0,0,0,0,0,0
	l-1.4-4.2c-0.2-0.5-0.7-0.8-1.2-0.6c0,0,0,0,0,0l-1.4,0.5c-9.2,3-19.2-2-22.2-11.3s2-19.2,11.3-22.2s19.2,2,22.2,11.3
	c0.6,1.8,0.9,3.6,0.9,5.5c0,2.1-0.4,4.2-1.1,6.2c-0.5,1.5-1.8,2.8-2.8,2.8c-1.4,0-2.5-1.1-2.5-2.4c0,0,0,0,0,0V13.6c0-0.5-0.4-1-1-1
	h-4.4c-0.5,0-0.9,0.4-1,0.9v0.4l-0.3-0.2c-5.7-3.1-12.8-0.9-15.9,4.8s-0.9,12.8,4.8,15.9c3.7,2,8.3,1.8,11.8-0.4l0.2-0.1l0.1,0.3
	c1.4,3.2,4.6,5.3,8.1,5.3c3.7,0,7.3-2.8,8.8-7c1-2.6,1.5-5.4,1.5-8.2c0-13.2-10.7-24-23.9-24C24,0,24,0,24,0z M28.8,24
	c0,3.2-2.6,5.8-5.8,5.8s-5.8-2.6-5.8-5.8c0-3.2,2.6-5.8,5.8-5.8l0,0C26.2,18.2,28.8,20.8,28.8,24z"/>
</svg>
