<svg xmlns="http://www.w3.org/2000/svg" xmlns:xlink="http://www.w3.org/1999/xlink" width="46" height="40" viewBox="0 0 46 40">
    <defs>
        <path id="a" d="M0 0h46v40H0z"/>
    </defs>
    <g fill="none" fill-rule="evenodd">
        <mask id="b" fill="#fff">
            <use xlink:href="#a"/>
        </mask>
        <path fill="#FF8900" d="M25.297 16.796l-.686 7.779c-.074.925-.235 1.635-.479 2.13-.245.494-.649.74-1.213.74-.573 0-.972-.238-1.195-.717-.223-.478-.384-1.207-.479-2.185l-.51-7.558c-.097-1.472-.144-2.53-.144-3.17 0-.874.231-1.555.694-2.044.463-.49 1.071-.734 1.826-.734.915 0 1.526.314 1.835.939.308.626.463 1.528.463 2.706 0 .694-.038 1.399-.112 2.114m-.606 17.498a2.461 2.461 0 0 1-1.675.63c-.65 0-1.215-.207-1.699-.623-.485-.415-.726-.997-.726-1.743 0-.653.231-1.208.694-1.665.463-.457 1.029-.686 1.698-.686.67 0 1.242.229 1.716.686a2.23 2.23 0 0 1 .71 1.665c0 .736-.24 1.315-.718 1.736m21 2.326L24.974 1.127c-.877-1.503-3.07-1.503-3.946 0L.308 36.62C-.568 38.122.528 40 2.282 40h41.436c1.754 0 2.85-1.878 1.974-3.38" mask="url(#b)"/>
    </g>
</svg>
