<svg xmlns="http://www.w3.org/2000/svg" xmlns:xlink="http://www.w3.org/1999/xlink" width="40" height="40" viewBox="0 0 40 40">
    <defs>
        <path id="a" d="M0 0h40v40H0z"/>
    </defs>
    <g fill="none" fill-rule="evenodd">
        <g>
            <mask id="b" fill="#fff">
                <use xlink:href="#a"/>
            </mask>
            <path fill="#CCC" d="M40 20c0 11.045-8.955 20-20 20S0 31.045 0 20 8.955 0 20 0s20 8.955 20 20" mask="url(#b)"/>
        </g>
        <path fill="#FFF" d="M18.897 28.225c1.48 0 2.466.94 2.466 2.405 0 1.429-.986 2.37-2.466 2.37-1.515 0-2.501-.941-2.501-2.37 0-1.464.986-2.405 2.501-2.405zm-1.938-4.391c0-5.437 5.778-6.03 5.778-9.898 0-1.813-1.303-3.171-3.452-3.171-1.55 0-3.347.452-5.285 1.637V8.5C15.198 7.802 17.241 7 19.602 7 23.795 7 27 9.475 27 13.448c0 6.064-6.27 6.657-6.27 10.908v1.15h-3.77v-1.672z"/>
    </g>
</svg>
