<svg xmlns="http://www.w3.org/2000/svg" width="370" height="170" viewBox="0 0 370 170">
    <g fill="none" fill-rule="evenodd">
        <g stroke="#76A340">
            <path stroke-width="11" d="M363.79 163.9v-62.26h-50.318V57.774h-50.319v43.866h-46.465v62.26h-73.15v-50.615l-45.287 30.768v-29.89l-42.77 29.89v-29.89L6 149.328V167.5M263.153 101.64v65.86M313.472 101.64v65.86M276.36 74.177h9.922M292.07 74.177h9.92M276.36 95.65h9.922M292.07 95.65h9.92M276.36 117.122h9.922M292.07 117.122h9.92M276.36 138.595h9.922M292.07 138.595h9.92M276.468 160.342h9.648M293.035 160.342h9.581M227.58 118.774h9.921M244.115 118.774h9.922M227.58 139.42h9.921M244.115 139.42h9.922M227.583 160.414h9.727M244.285 160.414h9.659M326.794 117.122h9.922M342.503 117.122h9.922M326.794 138.595h9.922M342.503 138.595h9.922M326.794 160.893h9.922M342.503 160.893h9.922"/>
            <path stroke-width="10" d="M68.782 83.497l120.491-59.482-4.034-9.346L166.3 5.847 98.817 39.161l-20.428-10.55-8.236 4.066 7.876 18.247L66.7 56.516M86.776 60.963L58.733 74.148"/>
        </g>
    </g>
</svg>
