<svg xmlns="http://www.w3.org/2000/svg" width="352" height="178" viewBox="0 0 352 178">
    <g fill="none" fill-rule="evenodd">
        <g stroke="#76A340" stroke-width="13">
            <path d="M42.811 37.201L74.755 9.177l32.224 28.269"/>
            <path d="M7 32.765v4.725c0 12.136 11.215 21.975 25.049 21.975h85.692c13.834 0 25.05-9.839 25.05-21.975v-3.968M112.44 71.97v29.968H37.35V71.969M133.23 116.074v54.848H16.56v-54.848"/>
            <path d="M89.931 158.67V133.6c0-7.285-6.732-13.191-15.036-13.191-8.305 0-15.036 5.906-15.036 13.19v25.072"/>
            <g>
                <path d="M302.938 159.383c0 6.416 5.17 11.617 11.547 11.617 6.376 0 11.546-5.2 11.546-11.617 0-6.416-5.17-11.617-11.546-11.617-6.377 0-11.547 5.2-11.547 11.617zM227.062 159.383c0 6.416-5.17 11.617-11.546 11.617-6.377 0-11.547-5.2-11.547-11.617 0-6.416 5.17-11.617 11.547-11.617 6.376 0 11.546 5.2 11.546 11.617zM274.072 93h25.605l14.805 35.698h5.954c13.566 0 24.564 11.138 24.564 24.876"/>
                <path d="M290.567 148.717h-43.892c0-11.066-14.328-20.036-23.249-20.036h-13.639c-13.69 0-24.787 11.145-24.787 24.893M290.567 115.404h-13.414c-5.896 0-17.101 3.44-17.101 13.01v5.246"/>
            </g>
        </g>
    </g>
</svg>
