<svg xmlns="http://www.w3.org/2000/svg" width="286" height="245" viewBox="0 0 286 245">
    <defs>
        <clipPath id="prefix__clip-path">
            <path id="prefix__長方形_311" d="M0 0H286V245H0z" data-name="長方形 311" transform="translate(30 10051)" style="fill:#fff"/>
        </clipPath>
        <style>
            .prefix__cls-3{opacity:.099}.prefix__cls-4{fill:#27a0b4}
        </style>
    </defs>
    <g id="prefix__マスクグループ_16" data-name="マスクグループ 16" transform="translate(-30 -10051)">
        <g id="prefix__CF7c7f_tif" class="prefix__cls-3" transform="translate(328.658 9947.115)">
            <g id="prefix__グループ_648" data-name="グループ 648" transform="translate(-298.658 125.062)">
                <path id="prefix__パス_1550" d="M-253.993 178.106c1.652 3.211 3.592 5.412 3.892 7.818 2.085 16.774 4.416 33.553 5.528 50.4 1.178 17.861.954 35.81 1.65 53.708.18 4.661-1.836 6.638-5.942 7.377-.967.174-1.942.337-2.919.414-14.892 1.157-17.362-.644-16.615-15.278 1.5-29.352 3.7-58.671 5.478-88.011.394-6.465 4.642-10.517 8.928-16.428z" class="prefix__cls-4" data-name="パス 1550" transform="translate(330.921 -68.283)"/>
                <path id="prefix__パス_1551" d="M-259.4 181.567l5.636-8.391c7.323 2.489 15.184 5.112 23.011 7.837q28.14 9.792 56.253 19.659c.93.325 2.1.393 2.737 1.017.954.942 2.263 2.414 2.066 3.389s-2.077 2.263-3.2 2.244a88.161 88.161 0 0 1-10.741-1.062c-18.859-2.623-37.686-5.507-56.576-7.87-10.646-1.332-16.097-7.821-19.186-16.823z" class="prefix__cls-4" data-name="パス 1551" transform="translate(340.682 -73.56)"/>
                <path id="prefix__パス_1552" d="M-233.873 172.785l4.892 9.039c-.507.524-1.311 1.484-2.244 2.294q-30.323 26.28-60.677 52.533c-.373.321-.7.8-1.13.934-1.857.578-3.747 1.054-5.625 1.567.329-2.054-.021-4.623 1.091-6.081 11.52-15.128 23.273-30.079 34.961-45.079 1.008-1.294 2.006-2.594 3.012-3.888 8.977-11.53 11.002-12.414 25.72-11.319z" class="prefix__cls-4" data-name="パス 1552" transform="translate(298.658 -74.354)"/>
                <path id="prefix__パス_1553" d="M-245.455 214.079l-10.468-.886c-1.559-8.193-3.2-16.855-4.857-25.518q-5.3-27.78-10.607-55.557a13.36 13.36 0 0 1-.615-3.863c.141-1.161.888-3.072 1.573-3.168a5.088 5.088 0 0 1 3.741 1.4c.984.969 1.4 2.555 1.948 3.917 7.644 18.863 14.913 37.891 23.042 56.543 4.462 10.242 3.843 19.006-3.757 27.132z" class="prefix__cls-4" data-name="パス 1553" transform="translate(327.162 -125.062)"/>
                <path id="prefix__パス_1554" d="M-251.948 177.651a6.964 6.964 0 0 1-8.437 4.917 6.919 6.919 0 0 1-4.677-8.168 6.649 6.649 0 0 1 8.406-4.779 6.586 6.586 0 0 1 4.708 8.03z" class="prefix__cls-4" data-name="パス 1554" transform="translate(334.416 -77.659)"/>
            </g>
        </g>
        <g id="prefix__CF7c7f_tif-2" class="prefix__cls-3" data-name="CF7c7f.tif" transform="translate(474.658 10024.938)">
            <g id="prefix__グループ_648-2" data-name="グループ 648" transform="translate(-298.658 125.062)">
                <path id="prefix__パス_1550-2" d="M-258.469 178.106c1.143 2.222 2.485 3.744 2.693 5.409 1.442 11.605 3.055 23.214 3.825 34.872.815 12.357.66 24.775 1.142 37.158.125 3.224-1.271 4.592-4.111 5.1-.669.12-1.344.233-2.02.286-10.3.8-12.012-.445-11.5-10.57 1.037-20.307 2.558-40.592 3.79-60.89.277-4.471 3.216-7.271 6.181-11.365z" class="prefix__cls-4" data-name="パス 1550" transform="translate(311.691 -102.125)"/>
                <path id="prefix__パス_1551-2" d="M-259.4 178.982l3.9-5.806c5.066 1.722 10.505 3.537 15.92 5.422q19.469 6.775 38.919 13.6c.643.225 1.455.272 1.894.7.66.652 1.566 1.67 1.43 2.345a2.8 2.8 0 0 1-2.214 1.553 60.987 60.987 0 0 1-7.431-.735c-13.048-1.815-26.073-3.81-39.142-5.445-7.367-.916-11.138-5.406-13.276-11.634z" class="prefix__cls-4" data-name="パス 1551" transform="translate(315.635 -104.257)"/>
                <path id="prefix__パス_1552-2" d="M-253.836 172.677l3.385 6.254c-.351.362-.907 1.027-1.553 1.587q-20.979 18.182-41.98 36.345c-.258.222-.483.553-.782.646-1.285.4-2.593.729-3.892 1.084.228-1.421-.014-3.2.755-4.207 7.97-10.467 16.1-20.81 24.188-31.188.7-.9 1.388-1.795 2.084-2.69 6.211-7.977 7.612-8.589 17.795-7.831z" class="prefix__cls-4" data-name="パス 1552" transform="translate(298.658 -104.577)"/>
                <path id="prefix__パス_1553-2" d="M-253.644 186.649l-7.242-.613c-1.079-5.668-2.216-11.661-3.36-17.654q-3.668-19.219-7.338-38.437a9.243 9.243 0 0 1-.425-2.673c.1-.8.614-2.126 1.089-2.192a3.52 3.52 0 0 1 2.588.968 7.937 7.937 0 0 1 1.348 2.71c5.288 13.051 10.318 26.215 15.941 39.119 3.086 7.086 2.657 13.149-2.601 18.772z" class="prefix__cls-4" data-name="パス 1553" transform="translate(310.173 -125.062)"/>
                <path id="prefix__パス_1554-2" d="M-256.047 175.092a4.818 4.818 0 0 1-5.837 3.4 4.787 4.787 0 0 1-3.236-5.651 4.6 4.6 0 0 1 5.816-3.306 4.556 4.556 0 0 1 3.257 5.557z" class="prefix__cls-4" data-name="パス 1554" transform="translate(313.103 -105.912)"/>
            </g>
        </g>
    </g>
</svg>
