<svg xmlns="http://www.w3.org/2000/svg" width="690" height="288" viewBox="0 0 690 288">
    <defs>
        <clipPath id="prefix__clip-path">
            <path id="prefix__長方形_412" d="M0 0H690V288H0z" data-name="長方形 412" transform="translate(30 6198)" style="fill:#fff"/>
        </clipPath>
        <style>
            .prefix__cls-3{fill:#579635;opacity:.101}
        </style>
    </defs>
    <g id="prefix__マスクグループ_25" data-name="マスクグループ 25" transform="translate(-30 -6198)">
        <path id="prefix__パス_5989" d="M156.053 441.518l-11.768-17.773a1.607 1.607 0 0 1 1.341-2.494h3.239a1.607 1.607 0 0 0 1.339-2.494l-11.488-17.349a1.609 1.609 0 0 1 1.341-2.5h1.412a1.607 1.607 0 0 0 1.339-2.494l-11.348-17.135a1.608 1.608 0 0 1 1.341-2.494 1.607 1.607 0 0 0 1.339-2.494L91.386 309.72a1.609 1.609 0 0 0-2.682 0l-42.755 64.57a1.607 1.607 0 0 0 1.339 2.494h.077a1.607 1.607 0 0 1 1.341 2.494l-11.347 17.138a1.608 1.608 0 0 0 1.341 2.494h1.412a1.608 1.608 0 0 1 1.339 2.5l-11.489 17.346a1.608 1.608 0 0 0 1.338 2.494h2.05a1.607 1.607 0 0 1 1.339 2.494l-11.764 17.774A1.608 1.608 0 0 0 24 443.992l8.814 1.448a349.323 349.323 0 0 0 52.007 4.533v22.916c0 2.323 1.476 4.208 3.3 4.208h6.436c1.821 0 3.3-1.885 3.3-4.208V449.9a349.3 349.3 0 0 0 48.3-4.458l8.814-1.448a1.608 1.608 0 0 0 1.082-2.476z" class="prefix__cls-3" data-name="パス 5989" transform="translate(563.678 6014.745)"/>
        <path id="prefix__パス_5990" d="M185.987 383.343a31.543 31.543 0 0 0-62.164 0 30.344 30.344 0 0 0 10.435 58.845 30.042 30.042 0 0 0 15.1-4.083v28.982c0 1.694 1.076 3.067 2.4 3.067h4.691c1.327 0 2.4-1.373 2.4-3.067v-29.952a30.33 30.33 0 1 0 27.126-53.792z" class="prefix__cls-3" data-name="パス 5990" transform="translate(380.292 6019.35)"/>
        <path id="prefix__パス_5991" d="M121.6 407.288l-8.729-13.182a1.192 1.192 0 0 1 .994-1.85h2.4a1.192 1.192 0 0 0 .993-1.85l-8.521-12.868a1.193 1.193 0 0 1 .994-1.851h1.047a1.192 1.192 0 0 0 .993-1.85l-8.416-12.711a1.192 1.192 0 0 1 .994-1.85 1.192 1.192 0 0 0 .993-1.85l-31.709-47.892a1.194 1.194 0 0 0-1.989 0l-31.712 47.892a1.192 1.192 0 0 0 .993 1.85h.057a1.192 1.192 0 0 1 .994 1.85l-8.416 12.711a1.192 1.192 0 0 0 .994 1.85H35.6a1.192 1.192 0 0 1 .993 1.851l-8.521 12.868a1.192 1.192 0 0 0 .994 1.85h1.524a1.192 1.192 0 0 1 .993 1.85l-8.729 13.182a1.192 1.192 0 0 0 .8 1.835l6.537 1.074a259.093 259.093 0 0 0 38.574 3.362v17c0 1.723 1.095 3.121 2.445 3.121h4.773c1.351 0 2.446-1.4 2.446-3.121V413.5a259.071 259.071 0 0 0 35.827-3.306l6.537-1.074a1.192 1.192 0 0 0 .807-1.832z" data-name="パス 5991" transform="translate(21.941 6061.164)" style="opacity:.105;fill:#579635"/>
    </g>
</svg>
