<svg xmlns="http://www.w3.org/2000/svg" width="690" height="457" viewBox="0 0 690 457">
    <g id="prefix__グループ_1405" data-name="グループ 1405" transform="translate(-12784 -13682)">
        <path id="prefix__長方形_312" d="M0 0H86.25V457H0z" data-name="長方形 312" transform="translate(12870.25 13682)" style="fill:#da9426"/>
        <path id="prefix__長方形_313" d="M0 0H86.25V457H0z" data-name="長方形 313" transform="translate(12784 13682)" style="fill:#da022c"/>
        <path id="prefix__長方形_314" d="M0 0H86.25V457H0z" data-name="長方形 314" transform="translate(13042.75 13682)" style="fill:#b60821"/>
        <path id="prefix__長方形_315" d="M0 0H86.25V457H0z" data-name="長方形 315" transform="translate(12956.5 13682)" style="fill:#4a8f33"/>
        <path id="prefix__長方形_316" d="M0 0H86.25V457H0z" data-name="長方形 316" transform="translate(13215.25 13682)" style="fill:#0fb2dc"/>
        <path id="prefix__長方形_317" d="M0 0H86.25V457H0z" data-name="長方形 317" transform="translate(13129 13682)" style="fill:#e8261e"/>
        <path id="prefix__長方形_318" d="M0 0H86.25V457H0z" data-name="長方形 318" transform="translate(13387.75 13682)" style="fill:#8e0c34"/>
        <path id="prefix__長方形_319" d="M0 0H86.25V457H0z" data-name="長方形 319" transform="translate(13301.5 13682)" style="fill:#ffb400"/>
    </g>
</svg>
