<svg id="レイヤー_1" data-name="レイヤー 1" xmlns="http://www.w3.org/2000/svg" viewBox="0 0 80 80"><defs><style>.cls-1{fill:#fff;}.cls-2{fill:#f5b91b;}</style></defs><title>貴金属</title><rect class="cls-1" width="80" height="80"/><path class="cls-2" d="M78,2V78H2V2H78m2-2H0V80H80V0Z"/><path class="cls-2" d="M40,44.14a1.55,1.55,0,0,1-.86-.27C39,43.75,22.72,24.14,26.13,13,27.59,8.28,32.25,5.87,40,5.87S52.41,8.28,53.87,13c3.4,11.09-12.69,30.55-13,30.84h0A1.54,1.54,0,0,1,40,44.14ZM40,7.87c-6.32,0-10.25,1.68-11.68,5-3.63,8.4,8.81,25.55,11.68,29,2.87-3.45,15.32-20.59,11.68-29C50.25,9.55,46.32,7.87,40,7.87Z"/><path class="cls-2" d="M40,55.13a6.31,6.31,0,1,1,6.31-6.31A6.32,6.32,0,0,1,40,55.13ZM40,44.5a4.31,4.31,0,1,0,4.31,4.31A4.32,4.32,0,0,0,40,44.5Z"/><path class="cls-2" d="M40,52a4.76,4.76,0,1,1,4.76-4.76A4.76,4.76,0,0,1,40,52Zm0-7.51a2.76,2.76,0,1,0,2.76,2.76A2.76,2.76,0,0,0,40,44.5Z"/><path class="cls-2" d="M6.55,71.58c-.77,0-1.14,0-1.61,0,0-.29.06-1,.06-1.61V67c0-.74,0-1.14,0-1.66a12.38,12.38,0,0,0,1.53,0H14a12,12,0,0,0,1.53,0,16.27,16.27,0,0,0-.06,1.77v2.8c0,.66,0,1.35.06,1.72-.39,0-.88,0-1.59,0h-.67a11,11,0,0,0,4.07.9,7.84,7.84,0,0,0-1,1.53,12.51,12.51,0,0,1-4.83-1.72l1.15-.71H7.72l1.2.69A12.8,12.8,0,0,1,4.21,74a6.21,6.21,0,0,0-1.08-1.47,10.14,10.14,0,0,0,3.92-1ZM6.33,63c-.76,0-1.21,0-1.65,0a9.77,9.77,0,0,0,.06-1.29v-.63a10.08,10.08,0,0,0-.06-1.29,15.18,15.18,0,0,0,1.74.06H9.36A3.55,3.55,0,0,0,9.26,59H11a3.88,3.88,0,0,0-.09.92h3.14a15.35,15.35,0,0,0,1.74-.06,9.61,9.61,0,0,0-.06,1.29v.63a9.46,9.46,0,0,0,.06,1.29c-.45,0-.91,0-1.65,0H10.95v.56h4.44a10,10,0,0,0,1.73-.1V65a10.18,10.18,0,0,0-1.73-.1H5.11A10.42,10.42,0,0,0,3.4,65V63.49a9.88,9.88,0,0,0,1.71.1H9.36V63Zm3-1.89H6.3v.71H9.36ZM6.58,67.07h7.27V66.5H6.58Zm0,1.63h7.27v-.58H6.58Zm0,1.66h7.27v-.61H6.58Zm7.6-8.51v-.71H10.95v.71Z"/><path class="cls-2" d="M22.8,65a9.94,9.94,0,0,0-1.48.08v-.77a16,16,0,0,1-2.47,1.32A7.25,7.25,0,0,0,18,64a11.76,11.76,0,0,0,6.18-4.72H26a9.28,9.28,0,0,0,2.33,2.48,12.28,12.28,0,0,0,4,2.17,8.47,8.47,0,0,0-.82,1.77,15.1,15.1,0,0,1-2.65-1.42v.82A9.69,9.69,0,0,0,27.42,65H25.87v1.56H29.7a10.21,10.21,0,0,0,1.65-.1v1.79a11.24,11.24,0,0,0-1.67-.1H25.87v3.61H30a13.3,13.3,0,0,0,1.79-.1v1.85A13.12,13.12,0,0,0,30,73.41H20.39a14,14,0,0,0-1.88.11V71.67a15.32,15.32,0,0,0,1.88.1h3.8V68.16H20.6a11.65,11.65,0,0,0-1.64.1V66.47a10.6,10.6,0,0,0,1.65.1h3.57V65Zm-1.08,3.3A19.21,19.21,0,0,1,22.93,71l-1.51.64A12.08,12.08,0,0,0,20.22,69Zm1-4.82,4.69,0,.36,0a12.31,12.31,0,0,1-2.73-2.71,11,11,0,0,1-2.65,2.71ZM30,69c-.2.37-.2.37-.76,1.55,0,.1-.11.21-.62,1.14l-1.42-.56a13.91,13.91,0,0,0,1.2-2.77Z"/><path class="cls-2" d="M40.34,70.22H37.57V72.5a12.64,12.64,0,0,0,.06,1.45h-1.7A13.31,13.31,0,0,0,36,72.25V70.11c0-.61,0-1,0-1.29a13.52,13.52,0,0,0,1.38,0h3v-.63H37.92a8,8,0,0,0-1.24,0c0-.16,0-.16,0-.42s0-.35,0-.66V66.12c0-.27,0-.64,0-1.08a9,9,0,0,0,1.36,0h2.3v-.53c-1.14.06-1.65.08-3.44.13a3.29,3.29,0,0,0-.55-1.18l1.14,0c1.56,0,4-.13,5.18-.27a11.4,11.4,0,0,0,1.74-.32H35.95c-.09,5.83-.45,8.2-1.74,11a8,8,0,0,0-1.32-1.47,9.93,9.93,0,0,0,1-3,46.51,46.51,0,0,0,.5-8.31,14.4,14.4,0,0,0-.08-1.71,16.85,16.85,0,0,0,2,.08h8.28a17.27,17.27,0,0,0,1.76-.06,9.53,9.53,0,0,0-.06,1.22v1A10.33,10.33,0,0,0,46.32,63c-.53,0-1,0-1.73,0l1,1a31.85,31.85,0,0,1-3.73.5v.63h2.59c.61,0,1,0,1.32,0a10.32,10.32,0,0,0,0,1.13v1a9.63,9.63,0,0,0,0,1.08,8.77,8.77,0,0,0-1.26,0H41.84v.63h3.27a11.61,11.61,0,0,0,1.48-.06,11.9,11.9,0,0,0-.06,1.43v2.24A1.21,1.21,0,0,1,46,73.66a2.85,2.85,0,0,1-1.38.21c-.33,0-.55,0-1.18,0a5.81,5.81,0,0,0-.27-1.43l.44.06-.17-.39a48,48,0,0,1-4.92.66,1.59,1.59,0,0,0-.35,0L38,71.3a5.9,5.9,0,0,0,.77,0c.42,0,.8,0,1.61-.08ZM44.7,61.6v-.74H35.95v.74Zm-6.47,4.67v.77h2.11v-.77Zm3.6.77h2.32v-.77H41.84Zm0,4.08,1-.13-.26-.39.71-.39H41.84Zm1.79-.9a13.49,13.49,0,0,1,1.08,1.93l-.62.35.49,0c.3,0,.39-.08.39-.35V70.22Z"/><path class="cls-2" d="M48.93,63.1a14.29,14.29,0,0,1,2.74,2.09l-.91,1.48A11.49,11.49,0,0,0,48,64.44Zm2.85,5.49a28.9,28.9,0,0,1-1.68,4.12c-.15.29-.24.45-.42.77s-.12.21-.21.39L48,72.54a17.17,17.17,0,0,0,2.41-5ZM49.6,59.17a13.43,13.43,0,0,1,2.68,2.11l-1,1.43a10.07,10.07,0,0,0-2.7-2.29Zm7.82,3.17a12,12,0,0,0-3.15-2L55.36,59a16.09,16.09,0,0,1,3.26,2l-1,1.32h2.27a9.36,9.36,0,0,0,1.7-.1v1.81a16.4,16.4,0,0,0-1.7-.08H57.51v2.8h2a11.91,11.91,0,0,0,1.65-.1v1.77c-.47,0-1.06-.08-1.65-.08h-2v3.33H60.1a13.71,13.71,0,0,0,1.8-.1v1.81a14,14,0,0,0-1.8-.1h-6.6a13.69,13.69,0,0,0-1.8.1V71.61a14.52,14.52,0,0,0,1.8.1h2.32V68.37H54.26c-.61,0-1.2,0-1.67.08V66.68a11.91,11.91,0,0,0,1.65.1h1.56V64h-2a12.63,12.63,0,0,0-1.7.08V62.25a12.28,12.28,0,0,0,1.7.1Z"/><path class="cls-2" d="M62.81,72.72a7.52,7.52,0,0,0,1.67-2.84l1.47.64a11,11,0,0,1-1.74,3.21Zm6.1-12.79a5.86,5.86,0,0,0-.09-1h1.88a5.34,5.34,0,0,0-.09,1v.14h3.57a10.35,10.35,0,0,0,1.61-.1v1.56a14,14,0,0,0-1.62-.06h-.85a10.18,10.18,0,0,1-.44,1h2.06a11.45,11.45,0,0,0,1.73-.08v1.56a11.51,11.51,0,0,0-1.74-.08H64.81a11.64,11.64,0,0,0-1.74.08V62.35a12.64,12.64,0,0,0,1.8.08h1.89c-.14-.35-.21-.53-.41-1h-.82a12.66,12.66,0,0,0-1.56.06V60a10.22,10.22,0,0,0,1.61.1h3.33Zm-2.76,9.62c-.65,0-1.06,0-1.48,0a8.24,8.24,0,0,0,.06-1.21V65.84a12.21,12.21,0,0,0-.06-1.43c.42,0,.82,0,1.64,0h7c.91,0,1.23,0,1.65,0a11.11,11.11,0,0,0-.06,1.43v2.4A12.82,12.82,0,0,0,75,69.6l-.51,0H74.1l-.42,0H70.23a12.87,12.87,0,0,1,1.5,1.27l-1.26,1a9.66,9.66,0,0,0-1.71-1.72l.74-.6Zm.15-3.14h7.06v-.66H66.31Zm0,1.85h7.06V67.6H66.31Zm1.8,3.67c0,.19,0,.26.24.31a7.35,7.35,0,0,0,1.3.1c1.76,0,2.24-.06,2.39-.31a3.24,3.24,0,0,0,.15-1.32,4.77,4.77,0,0,0,1.56.43c0,1.21-.17,1.72-.44,2-.42.48-1,.58-3.66.58s-3.14-.18-3.14-1.13V71.22A6.34,6.34,0,0,0,66.45,70h1.74a6.55,6.55,0,0,0-.08,1.19Zm3.06-9.51a8.92,8.92,0,0,0,.44-1H68a9.89,9.89,0,0,1,.39,1Zm4.33,11.12a17.41,17.41,0,0,0-2.08-3l1.33-.81a19.67,19.67,0,0,1,2.11,2.82Z"/></svg>